<?xml version="1.0" encoding="UTF-8"?>
<!DOCTYPE svg PUBLIC "-//W3C//DTD SVG 1.1//EN" "http://www.w3.org/Graphics/SVG/1.1/DTD/svg11.dtd">
<svg xmlns="http://www.w3.org/2000/svg" version="1.1" width="200px" height="200px" style="shape-rendering:geometricPrecision; text-rendering:geometricPrecision; image-rendering:optimizeQuality; fill-rule:evenodd; clip-rule:evenodd" xmlns:xlink="http://www.w3.org/1999/xlink">
<g><path style="opacity:1" fill="#fafbfb" d="M 107.5,17.5 C 112.276,18.8188 116.942,20.6521 121.5,23C 120.795,24.5565 121.461,25.7232 123.5,26.5C 123.554,25.3131 123.887,23.9798 124.5,22.5C 126.574,25.0779 129.24,26.5779 132.5,27C 131.672,27.9147 130.672,28.5814 129.5,29C 133.28,34.4124 137.447,39.5791 142,44.5C 144.011,48.5312 145.011,52.8645 145,57.5C 146.648,58.717 148.481,59.5503 150.5,60C 146.915,61.6026 146.582,63.7693 149.5,66.5C 148.675,67.3857 147.675,67.719 146.5,67.5C 146.429,70.3113 145.762,72.978 144.5,75.5C 144.608,76.4419 144.941,77.2753 145.5,78C 142.197,78.7784 141.197,80.6118 142.5,83.5C 138.447,88.2192 134.78,93.2192 131.5,98.5C 128.505,101.277 125.839,104.444 123.5,108C 121.048,108.29 118.715,108.956 116.5,110C 107.611,117.695 97.4441,122.861 86,125.5C 84.3189,125.392 83.1522,124.725 82.5,123.5C 82.8333,122.167 83.1667,120.833 83.5,119.5C 84.9063,119.027 85.573,118.027 85.5,116.5C 91.8036,108.014 97.9702,99.3472 104,90.5C 108.031,85.3039 112.531,80.6373 117.5,76.5C 113.274,78.8791 109.441,81.8791 106,85.5C 99.2259,93.7677 93.0592,102.434 87.5,111.5C 86.596,110.791 86.2627,109.791 86.5,108.5C 91.5572,100.061 96.3905,91.3948 101,82.5C 105.36,76.9739 109.526,71.3072 113.5,65.5C 111.529,61.039 108.196,59.539 103.5,61C 101.368,64.7641 98.8681,68.2641 96,71.5C 95.5065,73.1341 95.3398,74.8008 95.5,76.5C 87.1401,76.8312 78.8068,76.4979 70.5,75.5C 71.4318,73.2046 72.2652,70.8713 73,68.5C 75.4385,66.9732 77.4385,64.9732 79,62.5C 80.3965,56.8098 81.8965,51.1431 83.5,45.5C 81.6199,36.619 76.2866,30.9523 67.5,28.5C 66.0484,27.6981 64.3817,27.1981 62.5,27C 64.8856,26.7165 65.5523,25.7165 64.5,24C 66.1124,23.2797 67.6124,23.4464 69,24.5C 69.9025,23.2986 71.0692,22.4652 72.5,22C 71.1667,21.6667 69.8333,21.3333 68.5,21C 68.9574,20.586 69.2907,20.086 69.5,19.5C 71.4132,18.9488 73.4132,18.7821 75.5,19C 77.4224,15.6539 78.0891,15.6539 77.5,19C 78.0253,19.6924 78.6919,20.1924 79.5,20.5C 81.9926,18.6478 84.6593,17.4811 87.5,17C 86.2586,18.4865 86.7586,19.3199 89,19.5C 91.4845,19.1742 93.6512,18.1742 95.5,16.5C 96.8027,17.7178 97.8027,17.3845 98.5,15.5C 100.684,16.1081 102.684,15.4414 104.5,13.5C 105.389,15.007 106.389,16.3403 107.5,17.5 Z"/></g>
<g><path style="opacity:1" fill="#d6e7fa" d="M 123.5,15.5 C 122.828,16.2674 121.995,16.9341 121,17.5C 118.004,15.509 115.171,15.509 112.5,17.5C 111.416,16.3349 110.583,15.0016 110,13.5C 107.266,14.3617 107.099,15.195 109.5,16C 108.956,16.7172 108.289,17.2172 107.5,17.5C 106.389,16.3403 105.389,15.007 104.5,13.5C 102.684,15.4414 100.684,16.1081 98.5,15.5C 97.8027,17.3845 96.8027,17.7178 95.5,16.5C 93.6512,18.1742 91.4845,19.1742 89,19.5C 86.7586,19.3199 86.2586,18.4865 87.5,17C 84.6593,17.4811 81.9926,18.6478 79.5,20.5C 78.6919,20.1924 78.0253,19.6924 77.5,19C 78.0891,15.6539 77.4224,15.6539 75.5,19C 73.4132,18.7821 71.4132,18.9488 69.5,19.5C 69.2907,20.086 68.9574,20.586 68.5,21C 69.8333,21.3333 71.1667,21.6667 72.5,22C 71.0692,22.4652 69.9025,23.2986 69,24.5C 67.6124,23.4464 66.1124,23.2797 64.5,24C 65.5523,25.7165 64.8856,26.7165 62.5,27C 64.3817,27.1981 66.0484,27.6981 67.5,28.5C 62.752,28.2748 58.0853,28.7748 53.5,30C 48.3432,32.6618 43.0099,34.8285 37.5,36.5C 62.1827,13.83 90.8494,6.82998 123.5,15.5 Z"/></g>
<g><path style="opacity:0.994" fill="#0d0e0e" d="M 67.5,28.5 C 76.2866,30.9523 81.6199,36.619 83.5,45.5C 81.8965,51.1431 80.3965,56.8098 79,62.5C 77.4385,64.9732 75.4385,66.9732 73,68.5C 72.2652,70.8713 71.4318,73.2046 70.5,75.5C 78.8068,76.4979 87.1401,76.8312 95.5,76.5C 95.3398,74.8008 95.5065,73.1341 96,71.5C 98.8681,68.2641 101.368,64.7641 103.5,61C 108.196,59.539 111.529,61.039 113.5,65.5C 109.526,71.3072 105.36,76.9739 101,82.5C 96.3905,91.3948 91.5572,100.061 86.5,108.5C 85.8447,111.847 84.5114,115.014 82.5,118C 82.5699,118.765 82.9033,119.265 83.5,119.5C 83.1667,120.833 82.8333,122.167 82.5,123.5C 78.0458,130.743 74.3791,138.41 71.5,146.5C 70.193,148.223 70.193,150.057 71.5,152C 70.5,152.667 69.5,152.667 68.5,152C 67.5495,148.943 67.2161,145.777 67.5,142.5C 69.5063,138.463 70.5063,134.13 70.5,129.5C 72.2364,124.457 74.0698,119.457 76,114.5C 82.4088,102.934 88.2422,91.1004 93.5,79C 85.7595,78.7724 78.0928,78.7724 70.5,79C 66.3903,81.8086 62.5569,84.9753 59,88.5C 54.3397,95.3217 49.5063,101.988 44.5,108.5C 40.8124,109.861 38.479,112.528 37.5,116.5C 33.0027,120.164 29.0027,124.331 25.5,129C 27.0187,128.669 28.352,128.836 29.5,129.5C 26.1649,131.857 22.4982,133.191 18.5,133.5C 18.4326,132.041 18.7659,130.708 19.5,129.5C 20.2389,129.631 20.9056,129.464 21.5,129C 30.5012,119.813 38.6678,109.979 46,99.5C 48.3346,95.8453 47.8346,92.6786 44.5,90C 37.7723,89.0359 31.2723,89.8693 25,92.5C 16.4403,89.2042 16.607,86.3708 25.5,84C 36.7347,83.0257 47.4014,80.1924 57.5,75.5C 58.086,75.7093 58.586,76.0426 59,76.5C 64.6766,64.5964 69.5099,52.4298 73.5,40C 73.3569,37.849 72.3569,36.1824 70.5,35C 61.9096,32.4302 53.9096,33.5969 46.5,38.5C 39.7416,40.7136 33.4083,43.7136 27.5,47.5C 30.1231,43.2092 33.4564,39.5425 37.5,36.5C 43.0099,34.8285 48.3432,32.6618 53.5,30C 58.0853,28.7748 62.752,28.2748 67.5,28.5 Z"/></g>
<g><path style="opacity:0.99" fill="#fbfbfb" d="M 19.5,129.5 C 19.0618,129.565 18.7284,129.399 18.5,129C 19.3279,128.085 20.3279,127.419 21.5,127C 21,126.5 20.5,126 20,125.5C 18.3005,126.406 16.4672,126.739 14.5,126.5C 9.60506,109.597 9.27173,92.5969 13.5,75.5C 15.0481,75.1788 15.7148,74.1788 15.5,72.5C 17.3904,72.2965 18.8904,72.9632 20,74.5C 19.6948,72.5568 19.6948,70.5568 20,68.5C 26.8704,61.4966 34.037,54.9966 41.5,49C 41.0426,48.586 40.7093,48.086 40.5,47.5C 42.2429,44.2188 44.2429,41.2188 46.5,38.5C 53.9096,33.5969 61.9096,32.4302 70.5,35C 72.3569,36.1824 73.3569,37.849 73.5,40C 69.5099,52.4298 64.6766,64.5964 59,76.5C 58.586,76.0426 58.086,75.7093 57.5,75.5C 47.4014,80.1924 36.7347,83.0257 25.5,84C 16.607,86.3708 16.4403,89.2042 25,92.5C 31.2723,89.8693 37.7723,89.0359 44.5,90C 47.8346,92.6786 48.3346,95.8453 46,99.5C 38.6678,109.979 30.5012,119.813 21.5,129C 20.9056,129.464 20.2389,129.631 19.5,129.5 Z"/></g>
<g><path style="opacity:1" fill="#e6f0fc" d="M 123.5,15.5 C 134.676,18.7529 144.676,24.0862 153.5,31.5C 156.096,38.2412 158.429,45.0745 160.5,52C 159.622,57.4632 159.288,62.9632 159.5,68.5C 158.209,68.2627 157.209,68.596 156.5,69.5C 151.5,73.8333 146.833,78.5 142.5,83.5C 141.197,80.6118 142.197,78.7784 145.5,78C 144.941,77.2753 144.608,76.4419 144.5,75.5C 145.762,72.978 146.429,70.3113 146.5,67.5C 147.675,67.719 148.675,67.3857 149.5,66.5C 146.582,63.7693 146.915,61.6026 150.5,60C 148.481,59.5503 146.648,58.717 145,57.5C 145.011,52.8645 144.011,48.5312 142,44.5C 137.447,39.5791 133.28,34.4124 129.5,29C 130.672,28.5814 131.672,27.9147 132.5,27C 129.24,26.5779 126.574,25.0779 124.5,22.5C 123.887,23.9798 123.554,25.3131 123.5,26.5C 121.461,25.7232 120.795,24.5565 121.5,23C 116.942,20.6521 112.276,18.8188 107.5,17.5C 108.289,17.2172 108.956,16.7172 109.5,16C 107.099,15.195 107.266,14.3617 110,13.5C 110.583,15.0016 111.416,16.3349 112.5,17.5C 115.171,15.509 118.004,15.509 121,17.5C 121.995,16.9341 122.828,16.2674 123.5,15.5 Z"/></g>
<g><path style="opacity:0.998" fill="#d7e7f9" d="M 153.5,31.5 C 163.459,39.7859 171.125,49.7859 176.5,61.5C 176.244,63.7925 176.577,65.9592 177.5,68C 175.447,71.3276 173.614,74.8276 172,78.5C 169.276,85.3375 166.943,92.3375 165,99.5C 163.955,100.373 163.122,101.373 162.5,102.5C 161.599,103.29 160.932,104.29 160.5,105.5C 156.383,108.068 152.383,110.902 148.5,114C 133.975,120.107 129.809,115.94 136,101.5C 143.338,92.3303 151.838,84.3303 161.5,77.5C 161.833,78.3333 162.167,79.1667 162.5,80C 160.687,86.2928 158.021,92.1261 154.5,97.5C 152.401,98.5171 151.401,99.8505 151.5,101.5C 153.188,100.479 154.521,99.1454 155.5,97.5C 161.42,93.0803 165.087,87.247 166.5,80C 166.775,72.8668 163.441,69.3668 156.5,69.5C 157.209,68.596 158.209,68.2627 159.5,68.5C 159.288,62.9632 159.622,57.4632 160.5,52C 158.429,45.0745 156.096,38.2412 153.5,31.5 Z"/></g>
<g><path style="opacity:0.877" fill="#e2edfc" d="M 46.5,38.5 C 44.2429,41.2188 42.2429,44.2188 40.5,47.5C 40.7093,48.086 41.0426,48.586 41.5,49C 34.037,54.9966 26.8704,61.4966 20,68.5C 19.6948,70.5568 19.6948,72.5568 20,74.5C 18.8904,72.9632 17.3904,72.2965 15.5,72.5C 15.7148,74.1788 15.0481,75.1788 13.5,75.5C 16.585,65.3299 21.2517,55.9966 27.5,47.5C 33.4083,43.7136 39.7416,40.7136 46.5,38.5 Z"/></g>
<g><path style="opacity:1" fill="#111112" d="M 156.5,69.5 C 163.441,69.3668 166.775,72.8668 166.5,80C 165.087,87.247 161.42,93.0803 155.5,97.5C 155.167,97.5 154.833,97.5 154.5,97.5C 158.021,92.1261 160.687,86.2928 162.5,80C 162.167,79.1667 161.833,78.3333 161.5,77.5C 151.838,84.3303 143.338,92.3303 136,101.5C 129.809,115.94 133.975,120.107 148.5,114C 152.383,110.902 156.383,108.068 160.5,105.5C 159.167,107.167 157.833,108.833 156.5,110.5C 151.982,115.927 146.315,119.593 139.5,121.5C 138.151,121.154 136.817,120.821 135.5,120.5C 133.563,119.069 131.73,117.402 130,115.5C 129.312,109.718 129.812,104.051 131.5,98.5C 134.78,93.2192 138.447,88.2192 142.5,83.5C 146.833,78.5 151.5,73.8333 156.5,69.5 Z"/></g>
<g><path style="opacity:1" fill="#131313" d="M 102.5,105.5 C 103.167,105.5 103.5,105.833 103.5,106.5C 102.697,107.423 102.53,108.423 103,109.5C 112.5,103.988 119.167,95.9882 123,85.5C 123.498,82.5184 123.665,79.5184 123.5,76.5C 121.5,76.5 119.5,76.5 117.5,76.5C 122.102,73.5156 126.268,74.1823 130,78.5C 131.068,83.7683 130.401,88.7683 128,93.5C 122.818,101.013 116.651,107.513 109.5,113C 106.535,114.498 103.535,114.665 100.5,113.5C 98.7706,110.127 99.4373,107.46 102.5,105.5 Z"/></g>
<g><path style="opacity:1" fill="#fcfcfc" d="M 70.5,129.5 C 65.6682,127.335 60.6682,127.335 55.5,129.5C 53.5683,128.634 51.5683,127.967 49.5,127.5C 48.2867,127.747 47.62,128.414 47.5,129.5C 47.6309,130.376 47.2975,131.043 46.5,131.5C 45.0347,129.576 43.368,129.243 41.5,130.5C 38.0007,129.295 34.6674,127.962 31.5,126.5C 36.8009,121.245 41.1342,115.245 44.5,108.5C 49.5063,101.988 54.3397,95.3217 59,88.5C 62.5569,84.9753 66.3903,81.8086 70.5,79C 78.0928,78.7724 85.7595,78.7724 93.5,79C 88.2422,91.1004 82.4088,102.934 76,114.5C 74.0698,119.457 72.2364,124.457 70.5,129.5 Z"/></g>
<g><path style="opacity:1" fill="#dbdbdb" d="M 51.5,84.5 C 52.552,84.3505 53.552,84.5172 54.5,85C 52.7929,88.2485 50.9596,91.4151 49,94.5C 48.6667,93.1667 48.3333,91.8333 48,90.5C 46.414,89.624 44.914,88.624 43.5,87.5C 46.2763,86.4852 48.9429,85.4852 51.5,84.5 Z"/></g>
<g><path style="opacity:1" fill="#252525" d="M 117.5,76.5 C 112.531,80.6373 108.031,85.3039 104,90.5C 97.9702,99.3472 91.8036,108.014 85.5,116.5C 85.8925,114.716 86.5592,113.05 87.5,111.5C 93.0592,102.434 99.2259,93.7677 106,85.5C 109.441,81.8791 113.274,78.8791 117.5,76.5 Z"/></g>
<g><path style="opacity:1" fill="#6b7379" d="M 154.5,97.5 C 154.833,97.5 155.167,97.5 155.5,97.5C 154.521,99.1454 153.188,100.479 151.5,101.5C 151.401,99.8505 152.401,98.5171 154.5,97.5 Z"/></g>
<g><path style="opacity:1" fill="#353535" d="M 103.5,106.5 C 103.5,105.833 103.167,105.5 102.5,105.5C 105.964,101.403 109.964,97.7361 114.5,94.5C 115.521,95.0016 115.688,95.6683 115,96.5C 110.974,99.6984 107.141,103.032 103.5,106.5 Z"/></g>
<g><path style="opacity:1" fill="#494f55" d="M 162.5,102.5 C 162.938,102.435 163.272,102.601 163.5,103C 162.922,104.417 161.922,105.25 160.5,105.5C 160.932,104.29 161.599,103.29 162.5,102.5 Z"/></g>
<g><path style="opacity:1" fill="#9c9c9c" d="M 86.5,108.5 C 86.2627,109.791 86.596,110.791 87.5,111.5C 86.5592,113.05 85.8925,114.716 85.5,116.5C 84.0937,116.973 83.427,117.973 83.5,119.5C 82.9033,119.265 82.5699,118.765 82.5,118C 84.5114,115.014 85.8447,111.847 86.5,108.5 Z"/></g>
<g><path style="opacity:1" fill="#e4effc" d="M 131.5,98.5 C 129.812,104.051 129.312,109.718 130,115.5C 131.73,117.402 133.563,119.069 135.5,120.5C 134.177,121.053 132.844,120.553 131.5,119C 130.5,118.333 129.5,118.333 128.5,119C 122.84,124.272 116.84,129.105 110.5,133.5C 105.362,135.103 100.362,137.103 95.5,139.5C 94.5522,142.715 93.2189,143.048 91.5,140.5C 89.8333,141.833 88.1667,141.833 86.5,140.5C 85.1198,141.976 83.4531,142.976 81.5,143.5C 79.9533,148.365 77.7866,148.698 75,144.5C 74.0053,145.066 73.172,145.733 72.5,146.5C 72.1667,147.833 71.8333,147.833 71.5,146.5C 74.3791,138.41 78.0458,130.743 82.5,123.5C 83.1522,124.725 84.3189,125.392 86,125.5C 97.4441,122.861 107.611,117.695 116.5,110C 118.715,108.956 121.048,108.29 123.5,108C 125.839,104.444 128.505,101.277 131.5,98.5 Z"/></g>
<g><path style="opacity:1" fill="#393939" d="M 44.5,108.5 C 41.1342,115.245 36.8009,121.245 31.5,126.5C 33.1023,122.905 35.1023,119.571 37.5,116.5C 38.479,112.528 40.8124,109.861 44.5,108.5 Z"/></g>
<g><path style="opacity:1" fill="#1e1e1e" d="M 85.5,116.5 C 85.573,118.027 84.9063,119.027 83.5,119.5C 83.427,117.973 84.0937,116.973 85.5,116.5 Z"/></g>
<g><path style="opacity:1" fill="#d4e6fc" d="M 156.5,110.5 C 153.867,114.302 151.034,117.969 148,121.5C 147.51,122.793 147.343,124.127 147.5,125.5C 146.5,125.5 145.5,125.5 144.5,125.5C 144.5,126.5 144.5,127.5 144.5,128.5C 149.499,128.891 149.666,130.225 145,132.5C 143.943,131.373 142.777,130.873 141.5,131C 141.957,131.414 142.291,131.914 142.5,132.5C 141.478,133.354 140.645,134.354 140,135.5C 139,134.5 138,133.5 137,132.5C 136.667,133.167 136.333,133.833 136,134.5C 132.457,132.136 129.29,132.802 126.5,136.5C 122.879,136.741 120.212,138.407 118.5,141.5C 117.707,141.069 116.873,140.735 116,140.5C 112.896,141.702 110.063,143.368 107.5,145.5C 108.59,146.609 108.59,147.609 107.5,148.5C 104.024,145.216 102.357,145.883 102.5,150.5C 99.1043,150.367 98.7709,149.367 101.5,147.5C 96.952,146.808 92.452,146.141 88,145.5C 86.6667,146.833 85.3333,148.167 84,149.5C 83.6924,148.692 83.1924,148.025 82.5,147.5C 78.8717,149.08 75.5384,148.747 72.5,146.5C 73.172,145.733 74.0053,145.066 75,144.5C 77.7866,148.698 79.9533,148.365 81.5,143.5C 83.4531,142.976 85.1198,141.976 86.5,140.5C 88.1667,141.833 89.8333,141.833 91.5,140.5C 93.2189,143.048 94.5522,142.715 95.5,139.5C 100.362,137.103 105.362,135.103 110.5,133.5C 116.84,129.105 122.84,124.272 128.5,119C 129.5,118.333 130.5,118.333 131.5,119C 132.844,120.553 134.177,121.053 135.5,120.5C 136.817,120.821 138.151,121.154 139.5,121.5C 146.315,119.593 151.982,115.927 156.5,110.5 Z"/></g>
<g><path style="opacity:1" fill="#dee6ef" d="M 37.5,116.5 C 35.1023,119.571 33.1023,122.905 31.5,126.5C 34.6674,127.962 38.0007,129.295 41.5,130.5C 40.365,131.474 39.365,132.641 38.5,134C 39.3081,134.308 39.9747,134.808 40.5,135.5C 39.467,136.452 38.3004,136.452 37,135.5C 36.0546,135.905 35.3879,136.572 35,137.5C 33.1483,134.653 33.6483,132.153 36.5,130C 34.3264,130.937 31.9931,131.771 29.5,132.5C 29.5,131.5 29.5,130.5 29.5,129.5C 28.352,128.836 27.0187,128.669 25.5,129C 29.0027,124.331 33.0027,120.164 37.5,116.5 Z"/></g>
<g><path style="opacity:1" fill="#b5d3fb" d="M 182.5,77.5 C 186.5,92.1667 186.5,106.833 182.5,121.5C 181.85,121.804 181.183,122.137 180.5,122.5C 177.386,130.647 172.553,137.647 166,143.5C 165.64,145.421 164.806,147.088 163.5,148.5C 163.833,149.167 164.167,149.833 164.5,150.5C 162.994,151.747 161.494,151.747 160,150.5C 158.264,152.063 156.764,153.73 155.5,155.5C 154.817,153.824 153.483,153.157 151.5,153.5C 151.297,151.61 151.963,150.11 153.5,149C 152.354,148.355 151.354,147.522 150.5,146.5C 149.08,149.966 146.747,150.966 143.5,149.5C 146.499,143.835 151.165,140.502 157.5,139.5C 157.656,134.872 159.99,131.872 164.5,130.5C 164.94,131.698 165.273,132.865 165.5,134C 164.207,134.49 162.873,134.657 161.5,134.5C 161.19,138.332 162.857,139.832 166.5,139C 167.5,136.667 169.167,135 171.5,134C 169.833,133.667 168.167,133.333 166.5,133C 167.705,130.766 167.039,129.099 164.5,128C 166.112,127.28 167.612,127.446 169,128.5C 169.456,127.256 168.956,126.423 167.5,126C 168.416,125.626 169.25,125.126 170,124.5C 170.333,122.5 170.667,120.5 171,118.5C 171.667,119.167 172.333,119.833 173,120.5C 175.718,118.206 178.885,117.206 182.5,117.5C 182.587,114.261 181.92,111.261 180.5,108.5C 178.669,107.948 177.003,107.948 175.5,108.5C 177.5,109.833 179.167,111.5 180.5,113.5C 178.955,114.452 177.288,114.785 175.5,114.5C 175.5,115.5 175.5,116.5 175.5,117.5C 174.167,117.5 172.833,117.5 171.5,117.5C 171.328,115.508 171.995,113.842 173.5,112.5C 172.833,111.5 172.167,110.5 171.5,109.5C 173.455,107.174 175.455,104.841 177.5,102.5C 176.48,100.568 176.313,98.5675 177,96.5C 179.774,91.4178 180.94,86.0845 180.5,80.5C 180.942,79.2613 181.609,78.2613 182.5,77.5 Z"/></g>
<g><path style="opacity:0.8" fill="#9dc3fa" d="M 182.5,121.5 C 173.494,153.34 153.161,174.173 121.5,184C 109.908,186.661 98.2411,187.494 86.5,186.5C 85.9423,185.21 84.9423,184.377 83.5,184C 85.9383,183.318 88.1049,183.818 90,185.5C 92.8127,183.518 94.646,180.852 95.5,177.5C 94.2634,176.719 93.2634,175.719 92.5,174.5C 92.9569,173.702 93.6236,173.369 94.5,173.5C 95.0065,174.859 96.0065,175.859 97.5,176.5C 96.6744,177.451 96.5078,178.451 97,179.5C 98.7548,176.956 100.755,174.623 103,172.5C 104.578,173.711 104.745,175.045 103.5,176.5C 102.016,178.074 100.349,179.407 98.5,180.5C 99.5112,184.223 100.845,184.223 102.5,180.5C 103.5,181.833 104.5,181.833 105.5,180.5C 106.243,181.908 107.077,183.241 108,184.5C 108.758,182.231 108.591,180.064 107.5,178C 108.448,177.517 109.448,177.351 110.5,177.5C 110.222,179.346 110.889,180.68 112.5,181.5C 113.354,180.052 114.354,178.719 115.5,177.5C 114.675,176.614 113.675,176.281 112.5,176.5C 112.119,174.058 112.786,173.391 114.5,174.5C 115.167,173.833 115.833,173.167 116.5,172.5C 117.696,172.846 117.696,173.346 116.5,174C 118.089,175.543 119.423,175.543 120.5,174C 119.258,172.555 118.425,171.055 118,169.5C 119.333,170.167 120.667,170.833 122,171.5C 122.251,173.433 122.751,175.266 123.5,177C 125.896,177.866 126.563,177.366 125.5,175.5C 126.015,173.775 126.682,172.108 127.5,170.5C 130.151,171.789 132.484,171.289 134.5,169C 136.163,166.346 137.496,163.513 138.5,160.5C 140.62,159.128 141.62,159.795 141.5,162.5C 140.5,162.5 139.5,162.5 138.5,162.5C 138.105,165.523 139.105,166.523 141.5,165.5C 142.769,167.695 142.769,169.861 141.5,172C 142.448,172.483 143.448,172.649 144.5,172.5C 144.279,169.721 144.612,167.054 145.5,164.5C 144.816,160.446 144.816,156.446 145.5,152.5C 146.935,153.824 147.935,155.49 148.5,157.5C 149.216,156.689 150.05,156.022 151,155.5C 152.563,156.722 154.063,156.722 155.5,155.5C 156.764,153.73 158.264,152.063 160,150.5C 161.494,151.747 162.994,151.747 164.5,150.5C 164.167,149.833 163.833,149.167 163.5,148.5C 164.806,147.088 165.64,145.421 166,143.5C 172.553,137.647 177.386,130.647 180.5,122.5C 181.183,122.137 181.85,121.804 182.5,121.5 Z"/></g>
<g><path style="opacity:1" fill="#c7defb" d="M 176.5,61.5 C 179.464,66.3817 181.464,71.715 182.5,77.5C 181.609,78.2613 180.942,79.2613 180.5,80.5C 180.94,86.0845 179.774,91.4178 177,96.5C 176.313,98.5675 176.48,100.568 177.5,102.5C 175.455,104.841 173.455,107.174 171.5,109.5C 172.167,110.5 172.833,111.5 173.5,112.5C 171.995,113.842 171.328,115.508 171.5,117.5C 172.833,117.5 174.167,117.5 175.5,117.5C 175.5,116.5 175.5,115.5 175.5,114.5C 177.288,114.785 178.955,114.452 180.5,113.5C 179.167,111.5 177.5,109.833 175.5,108.5C 177.003,107.948 178.669,107.948 180.5,108.5C 181.92,111.261 182.587,114.261 182.5,117.5C 178.885,117.206 175.718,118.206 173,120.5C 172.333,119.833 171.667,119.167 171,118.5C 170.667,120.5 170.333,122.5 170,124.5C 169.25,125.126 168.416,125.626 167.5,126C 168.956,126.423 169.456,127.256 169,128.5C 167.612,127.446 166.112,127.28 164.5,128C 167.039,129.099 167.705,130.766 166.5,133C 168.167,133.333 169.833,133.667 171.5,134C 169.167,135 167.5,136.667 166.5,139C 162.857,139.832 161.19,138.332 161.5,134.5C 162.873,134.657 164.207,134.49 165.5,134C 165.273,132.865 164.94,131.698 164.5,130.5C 159.99,131.872 157.656,134.872 157.5,139.5C 151.165,140.502 146.499,143.835 143.5,149.5C 146.747,150.966 149.08,149.966 150.5,146.5C 151.354,147.522 152.354,148.355 153.5,149C 151.963,150.11 151.297,151.61 151.5,153.5C 153.483,153.157 154.817,153.824 155.5,155.5C 154.063,156.722 152.563,156.722 151,155.5C 150.05,156.022 149.216,156.689 148.5,157.5C 147.935,155.49 146.935,153.824 145.5,152.5C 144.816,156.446 144.816,160.446 145.5,164.5C 144.504,164.586 143.671,164.252 143,163.5C 142.879,161.273 142.046,159.44 140.5,158C 141.747,156.506 141.747,155.006 140.5,153.5C 139.852,157.638 138.185,158.305 135.5,155.5C 134.03,157.972 132.03,159.805 129.5,161C 123.488,161.538 117.488,161.538 111.5,161C 110.95,159.155 109.95,157.655 108.5,156.5C 108.094,157.557 108.094,158.891 108.5,160.5C 104.251,160.692 100.251,161.692 96.5,163.5C 95.5,162.833 94.5,162.167 93.5,161.5C 92.7348,162.612 91.7348,163.279 90.5,163.5C 88.4352,163.517 86.4352,163.85 84.5,164.5C 78.2319,161.736 73.0653,162.402 69,166.5C 66.4507,165.41 65.6174,163.743 66.5,161.5C 67.1667,162.5 67.8333,163.5 68.5,164.5C 69.754,162.741 69.4206,161.241 67.5,160C 64.4294,159.853 61.5961,159.02 59,157.5C 56.9646,159.912 55.9646,159.245 56,155.5C 54.9826,158.028 53.8159,158.028 52.5,155.5C 51.914,155.709 51.414,156.043 51,156.5C 49.6487,154.981 48.1487,153.648 46.5,152.5C 45.8333,153.833 45.1667,155.167 44.5,156.5C 43.5,155.5 42.5,154.5 41.5,153.5C 42.8333,152.167 42.8333,150.833 41.5,149.5C 39.2873,147.226 36.6207,145.726 33.5,145C 32.1667,144.333 32.1667,143.667 33.5,143C 32.1667,142.333 31.1667,141.333 30.5,140C 27.8955,140.09 25.2288,139.423 22.5,138C 22.0698,137.08 21.7365,136.247 21.5,135.5C 20.5832,136.127 19.5832,136.461 18.5,136.5C 16.9709,133.246 15.6376,129.913 14.5,126.5C 16.4672,126.739 18.3005,126.406 20,125.5C 20.5,126 21,126.5 21.5,127C 20.3279,127.419 19.3279,128.085 18.5,129C 18.7284,129.399 19.0618,129.565 19.5,129.5C 18.7659,130.708 18.4326,132.041 18.5,133.5C 22.4982,133.191 26.1649,131.857 29.5,129.5C 29.5,130.5 29.5,131.5 29.5,132.5C 31.9931,131.771 34.3264,130.937 36.5,130C 33.6483,132.153 33.1483,134.653 35,137.5C 35.3879,136.572 36.0546,135.905 37,135.5C 38.3004,136.452 39.467,136.452 40.5,135.5C 39.9747,134.808 39.3081,134.308 38.5,134C 39.365,132.641 40.365,131.474 41.5,130.5C 43.368,129.243 45.0347,129.576 46.5,131.5C 47.2975,131.043 47.6309,130.376 47.5,129.5C 52.5586,129.94 53.3919,131.94 50,135.5C 49.6758,133.431 48.8425,133.098 47.5,134.5C 46.8333,133.833 46.1667,133.167 45.5,132.5C 44.011,132.533 42.6776,133.033 41.5,134C 45.1907,136.306 46.3574,139.473 45,143.5C 46.5122,144.257 47.8455,145.257 49,146.5C 51.4245,144.571 54.2579,143.571 57.5,143.5C 57.259,146.999 58.0924,147.332 60,144.5C 60.3076,145.308 60.8076,145.975 61.5,146.5C 62.4287,145.311 62.762,143.978 62.5,142.5C 64.1667,142.5 65.8333,142.5 67.5,142.5C 67.2161,145.777 67.5495,148.943 68.5,152C 69.5,152.667 70.5,152.667 71.5,152C 70.193,150.057 70.193,148.223 71.5,146.5C 71.8333,147.833 72.1667,147.833 72.5,146.5C 75.5384,148.747 78.8717,149.08 82.5,147.5C 83.1924,148.025 83.6924,148.692 84,149.5C 85.3333,148.167 86.6667,146.833 88,145.5C 92.452,146.141 96.952,146.808 101.5,147.5C 98.7709,149.367 99.1043,150.367 102.5,150.5C 102.357,145.883 104.024,145.216 107.5,148.5C 108.59,147.609 108.59,146.609 107.5,145.5C 110.063,143.368 112.896,141.702 116,140.5C 116.873,140.735 117.707,141.069 118.5,141.5C 120.212,138.407 122.879,136.741 126.5,136.5C 129.29,132.802 132.457,132.136 136,134.5C 136.333,133.833 136.667,133.167 137,132.5C 138,133.5 139,134.5 140,135.5C 140.645,134.354 141.478,133.354 142.5,132.5C 142.291,131.914 141.957,131.414 141.5,131C 142.777,130.873 143.943,131.373 145,132.5C 149.666,130.225 149.499,128.891 144.5,128.5C 144.5,127.5 144.5,126.5 144.5,125.5C 145.5,125.5 146.5,125.5 147.5,125.5C 147.343,124.127 147.51,122.793 148,121.5C 151.034,117.969 153.867,114.302 156.5,110.5C 157.833,108.833 159.167,107.167 160.5,105.5C 161.922,105.25 162.922,104.417 163.5,103C 163.272,102.601 162.938,102.435 162.5,102.5C 163.122,101.373 163.955,100.373 165,99.5C 166.943,92.3375 169.276,85.3375 172,78.5C 173.614,74.8276 175.447,71.3276 177.5,68C 176.577,65.9592 176.244,63.7925 176.5,61.5 Z"/></g>
<g><path style="opacity:1" fill="#e4effc" d="M 70.5,129.5 C 70.5063,134.13 69.5063,138.463 67.5,142.5C 65.8333,142.5 64.1667,142.5 62.5,142.5C 62.762,143.978 62.4287,145.311 61.5,146.5C 60.8076,145.975 60.3076,145.308 60,144.5C 58.0924,147.332 57.259,146.999 57.5,143.5C 54.2579,143.571 51.4245,144.571 49,146.5C 47.8455,145.257 46.5122,144.257 45,143.5C 46.3574,139.473 45.1907,136.306 41.5,134C 42.6776,133.033 44.011,132.533 45.5,132.5C 46.1667,133.167 46.8333,133.833 47.5,134.5C 48.8425,133.098 49.6758,133.431 50,135.5C 53.3919,131.94 52.5586,129.94 47.5,129.5C 47.62,128.414 48.2867,127.747 49.5,127.5C 51.5683,127.967 53.5683,128.634 55.5,129.5C 60.6682,127.335 65.6682,127.335 70.5,129.5 Z"/></g>
<g><path style="opacity:1" fill="#b3d2fb" d="M 84.5,164.5 C 85.5521,166.256 87.2188,166.923 89.5,166.5C 89.5499,168.59 88.5499,169.923 86.5,170.5C 85.7492,169.624 85.2492,168.624 85,167.5C 82.0057,170.484 78.5057,172.318 74.5,173C 76.8358,170.952 76.8358,169.118 74.5,167.5C 73.8524,169.149 72.8524,170.482 71.5,171.5C 70.8076,170.975 70.3076,170.308 70,169.5C 68.9887,170.337 67.8221,170.67 66.5,170.5C 66.33,169.178 66.6634,168.011 67.5,167C 65.661,164.444 63.3277,164.277 60.5,166.5C 58.4841,165.294 56.4841,165.294 54.5,166.5C 56.637,167.868 58.9703,168.868 61.5,169.5C 60.3984,170.176 59.3984,170.842 58.5,171.5C 56.8008,171.66 55.1341,171.494 53.5,171C 54.6682,169.594 54.3348,168.428 52.5,167.5C 50.9547,166.548 49.288,166.215 47.5,166.5C 47.5,165.5 47.5,164.5 47.5,163.5C 49.6891,163.793 51.6891,164.293 53.5,165C 54.3048,162.866 53.6382,161.033 51.5,159.5C 48.7102,160.313 46.0435,161.313 43.5,162.5C 43.6567,163.873 43.49,165.207 43,166.5C 41.3932,162.015 39.8932,157.515 38.5,153C 37.1011,152.405 35.7678,152.572 34.5,153.5C 32.9539,152.316 31.2873,151.316 29.5,150.5C 29.7093,149.914 30.0426,149.414 30.5,149C 28.8659,148.506 27.1992,148.34 25.5,148.5C 22.677,144.864 20.3437,140.864 18.5,136.5C 19.5832,136.461 20.5832,136.127 21.5,135.5C 21.7365,136.247 22.0698,137.08 22.5,138C 25.2288,139.423 27.8955,140.09 30.5,140C 31.1667,141.333 32.1667,142.333 33.5,143C 32.1667,143.667 32.1667,144.333 33.5,145C 36.6207,145.726 39.2873,147.226 41.5,149.5C 42.8333,150.833 42.8333,152.167 41.5,153.5C 42.5,154.5 43.5,155.5 44.5,156.5C 45.1667,155.167 45.8333,153.833 46.5,152.5C 48.1487,153.648 49.6487,154.981 51,156.5C 51.414,156.043 51.914,155.709 52.5,155.5C 53.8159,158.028 54.9826,158.028 56,155.5C 55.9646,159.245 56.9646,159.912 59,157.5C 61.5961,159.02 64.4294,159.853 67.5,160C 69.4206,161.241 69.754,162.741 68.5,164.5C 67.8333,163.5 67.1667,162.5 66.5,161.5C 65.6174,163.743 66.4507,165.41 69,166.5C 73.0653,162.402 78.2319,161.736 84.5,164.5 Z"/></g>
<g><path style="opacity:1" fill="#b4d2fb" d="M 145.5,164.5 C 144.612,167.054 144.279,169.721 144.5,172.5C 143.448,172.649 142.448,172.483 141.5,172C 142.769,169.861 142.769,167.695 141.5,165.5C 139.105,166.523 138.105,165.523 138.5,162.5C 139.5,162.5 140.5,162.5 141.5,162.5C 141.62,159.795 140.62,159.128 138.5,160.5C 137.496,163.513 136.163,166.346 134.5,169C 132.484,171.289 130.151,171.789 127.5,170.5C 126.682,172.108 126.015,173.775 125.5,175.5C 126.563,177.366 125.896,177.866 123.5,177C 122.751,175.266 122.251,173.433 122,171.5C 120.667,170.833 119.333,170.167 118,169.5C 118.425,171.055 119.258,172.555 120.5,174C 119.423,175.543 118.089,175.543 116.5,174C 117.696,173.346 117.696,172.846 116.5,172.5C 115.833,173.167 115.167,173.833 114.5,174.5C 112.786,173.391 112.119,174.058 112.5,176.5C 113.675,176.281 114.675,176.614 115.5,177.5C 114.354,178.719 113.354,180.052 112.5,181.5C 110.889,180.68 110.222,179.346 110.5,177.5C 109.448,177.351 108.448,177.517 107.5,178C 108.591,180.064 108.758,182.231 108,184.5C 107.077,183.241 106.243,181.908 105.5,180.5C 104.5,181.833 103.5,181.833 102.5,180.5C 100.845,184.223 99.5112,184.223 98.5,180.5C 100.349,179.407 102.016,178.074 103.5,176.5C 104.745,175.045 104.578,173.711 103,172.5C 100.755,174.623 98.7548,176.956 97,179.5C 96.5078,178.451 96.6744,177.451 97.5,176.5C 96.0065,175.859 95.0065,174.859 94.5,173.5C 93.8166,171.824 92.4832,171.157 90.5,171.5C 90.3601,169.876 91.0267,168.71 92.5,168C 91.1667,167 91.1667,166 92.5,165C 91.5842,164.722 90.9175,164.222 90.5,163.5C 91.7348,163.279 92.7348,162.612 93.5,161.5C 94.5,162.167 95.5,162.833 96.5,163.5C 100.251,161.692 104.251,160.692 108.5,160.5C 108.094,158.891 108.094,157.557 108.5,156.5C 109.95,157.655 110.95,159.155 111.5,161C 117.488,161.538 123.488,161.538 129.5,161C 132.03,159.805 134.03,157.972 135.5,155.5C 138.185,158.305 139.852,157.638 140.5,153.5C 141.747,155.006 141.747,156.506 140.5,158C 142.046,159.44 142.879,161.273 143,163.5C 143.671,164.252 144.504,164.586 145.5,164.5 Z"/></g>
<g><path style="opacity:1" fill="#98bff9" d="M 25.5,148.5 C 27.1992,148.34 28.8659,148.506 30.5,149C 30.0426,149.414 29.7093,149.914 29.5,150.5C 31.2873,151.316 32.9539,152.316 34.5,153.5C 35.7678,152.572 37.1011,152.405 38.5,153C 39.8932,157.515 41.3932,162.015 43,166.5C 43.49,165.207 43.6567,163.873 43.5,162.5C 46.0435,161.313 48.7102,160.313 51.5,159.5C 53.6382,161.033 54.3048,162.866 53.5,165C 51.6891,164.293 49.6891,163.793 47.5,163.5C 47.5,164.5 47.5,165.5 47.5,166.5C 49.288,166.215 50.9547,166.548 52.5,167.5C 54.3348,168.428 54.6682,169.594 53.5,171C 55.1341,171.494 56.8008,171.66 58.5,171.5C 60.1703,171.751 61.6703,172.418 63,173.5C 62.621,175.075 62.7877,176.575 63.5,178C 65.7513,177.793 68.0846,177.627 70.5,177.5C 70.5,178.833 70.5,180.167 70.5,181.5C 73.5788,181.74 76.5788,181.407 79.5,180.5C 80.3816,181.76 81.3816,182.926 82.5,184C 81.2068,184.49 79.8734,184.657 78.5,184.5C 55.9513,179.607 38.2846,167.607 25.5,148.5 Z"/></g>
<g><path style="opacity:1" fill="#a8cafa" d="M 90.5,163.5 C 90.9175,164.222 91.5842,164.722 92.5,165C 91.1667,166 91.1667,167 92.5,168C 91.0267,168.71 90.3601,169.876 90.5,171.5C 92.4832,171.157 93.8166,171.824 94.5,173.5C 93.6236,173.369 92.9569,173.702 92.5,174.5C 93.2634,175.719 94.2634,176.719 95.5,177.5C 94.646,180.852 92.8127,183.518 90,185.5C 88.1049,183.818 85.9383,183.318 83.5,184C 84.9423,184.377 85.9423,185.21 86.5,186.5C 83.6697,186.037 81.003,185.371 78.5,184.5C 79.8734,184.657 81.2068,184.49 82.5,184C 81.3816,182.926 80.3816,181.76 79.5,180.5C 76.5788,181.407 73.5788,181.74 70.5,181.5C 70.5,180.167 70.5,178.833 70.5,177.5C 68.0846,177.627 65.7513,177.793 63.5,178C 62.7877,176.575 62.621,175.075 63,173.5C 61.6703,172.418 60.1703,171.751 58.5,171.5C 59.3984,170.842 60.3984,170.176 61.5,169.5C 58.9703,168.868 56.637,167.868 54.5,166.5C 56.4841,165.294 58.4841,165.294 60.5,166.5C 63.3277,164.277 65.661,164.444 67.5,167C 66.6634,168.011 66.33,169.178 66.5,170.5C 67.8221,170.67 68.9887,170.337 70,169.5C 70.3076,170.308 70.8076,170.975 71.5,171.5C 72.8524,170.482 73.8524,169.149 74.5,167.5C 76.8358,169.118 76.8358,170.952 74.5,173C 78.5057,172.318 82.0057,170.484 85,167.5C 85.2492,168.624 85.7492,169.624 86.5,170.5C 88.5499,169.923 89.5499,168.59 89.5,166.5C 87.2188,166.923 85.5521,166.256 84.5,164.5C 86.4352,163.85 88.4352,163.517 90.5,163.5 Z"/></g>
</svg>
