<?xml version="1.0" standalone="no"?>
<!DOCTYPE svg PUBLIC "-//W3C//DTD SVG 20010904//EN"
 "http://www.w3.org/TR/2001/REC-SVG-20010904/DTD/svg10.dtd">
<svg version="1.0" xmlns="http://www.w3.org/2000/svg"
 width="789.000000pt" height="485.000000pt" viewBox="0 0 789.000000 485.000000"
 preserveAspectRatio="xMidYMid meet">

<g transform="translate(0.000000,485.000000) scale(0.100000,-0.100000)"
fill="#000000" stroke="none">
<path d="M34 4797 c-1 -28 -5 -68 -9 -87 -4 -19 -7 -46 -7 -60 0 -14 -4 -30
-8 -35 -10 -12 -12 -319 -3 -343 5 -11 7 -11 14 -1 6 10 11 10 21 1 8 -6 24
-9 36 -5 23 6 92 -22 92 -37 0 -5 7 -7 17 -3 13 5 15 2 11 -15 -3 -11 -2 -22
2 -24 5 -2 10 -9 12 -17 2 -7 13 -24 26 -37 21 -22 25 -23 38 -9 9 8 12 15 8
15 -3 0 -2 6 3 13 6 6 11 37 13 67 4 72 4 74 -5 146 -4 34 -4 88 0 120 6 54
11 63 56 107 48 47 51 48 95 41 52 -7 58 6 14 33 -17 9 -30 23 -30 30 0 7 -4
13 -9 13 -13 0 -41 75 -41 110 l0 30 -172 0 -173 0 -1 -53z"/>
<path d="M4068 4748 c-1 -104 -4 -159 -11 -256 -2 -29 2 -90 9 -135 8 -55 10
-148 6 -282 -3 -110 -5 -264 -3 -342 l2 -143 -33 -1 c-28 0 -24 -3 27 -18 76
-22 109 -39 165 -88 98 -84 151 -116 263 -156 130 -48 213 -118 416 -354 148
-172 173 -219 196 -377 26 -173 35 -193 247 -521 39 -60 124 -209 188 -330
169 -315 162 -304 190 -307 15 -2 39 -22 67 -58 111 -142 162 -207 208 -270
28 -37 73 -95 101 -128 28 -33 69 -88 90 -121 62 -98 110 -160 177 -230 65
-68 187 -235 187 -256 0 -7 -16 -26 -35 -42 -19 -17 -35 -36 -35 -43 0 -7 -7
-10 -15 -6 -9 3 -15 0 -15 -10 0 -18 -24 -44 -40 -44 -6 0 -8 -4 -5 -10 3 -5
1 -10 -4 -10 -17 0 -83 -69 -76 -80 3 -5 0 -10 -7 -10 -8 0 -22 -14 -32 -31
-10 -17 -29 -35 -42 -41 -13 -6 -21 -15 -18 -19 3 -5 2 -10 -3 -10 -54 -8 -60
-6 -74 18 l-16 25 0 -31 0 -30 874 -1 873 0 0 2425 0 2425 -867 0 c-476 0
-863 -3 -860 -7 4 -3 2 -12 -3 -18 -7 -9 -6 -16 5 -25 21 -17 19 -37 -6 -50
-21 -12 -21 -37 0 -32 9 2 9 -3 0 -20 -8 -16 -9 -23 -1 -26 8 -2 8 -11 1 -28
-12 -32 -11 -37 2 -28 8 4 9 -6 5 -34 -3 -23 -1 -44 4 -47 6 -3 10 -13 10 -21
0 -10 -5 -12 -12 -8 -10 6 -10 5 -1 -7 6 -8 14 -35 18 -61 4 -28 11 -45 17
-42 6 4 7 -2 3 -16 -4 -13 -3 -20 2 -17 5 3 9 -9 10 -26 1 -52 3 -58 11 -54 6
5 7 -170 0 -269 -3 -42 -13 -49 -40 -26 -31 25 -74 138 -77 201 -1 19 -5 51
-10 72 -5 24 -5 37 0 33 6 -3 7 6 2 23 -4 15 -7 47 -6 71 0 23 -3 42 -7 42 -3
0 -5 16 -4 35 2 19 -1 37 -6 40 -6 4 -10 12 -10 19 0 7 -70 83 -156 169 l-156
157 -844 0 -844 0 -2 -102z m3364 -1341 c32 -28 62 -63 68 -77 14 -32 32 -64
48 -82 6 -8 9 -18 5 -21 -3 -4 -1 -7 6 -7 6 0 11 -6 10 -12 -4 -30 2 -49 12
-43 6 4 9 1 8 -6 -1 -8 9 -40 24 -71 14 -32 33 -97 43 -145 18 -92 28 -257 15
-249 -4 3 -6 -7 -5 -22 1 -15 -5 -52 -13 -82 -8 -30 -15 -62 -16 -70 0 -26
-34 -66 -58 -67 -30 -3 -89 26 -89 42 0 7 -33 46 -74 86 -105 106 -149 205
-139 315 2 27 6 92 8 144 10 251 16 377 21 398 3 17 11 22 37 22 25 0 45 -12
89 -53z m-42 -3292 c0 -8 8 -15 18 -15 14 0 15 2 2 10 -13 8 -12 10 3 10 20 0
20 1 6 -39 -10 -29 -29 -43 -29 -21 0 13 -37 13 -45 0 -5 -8 -11 -8 -20 0 -9
8 -15 8 -20 0 -3 -5 -11 -10 -16 -10 -5 0 0 13 12 29 21 29 59 35 67 11 2 -5
9 -10 15 -10 8 0 7 4 -1 12 -15 15 -16 38 -2 38 6 0 10 -7 10 -15z"/>
<path d="M7320 90 c0 -13 18 -22 24 -11 3 5 -1 11 -9 15 -8 3 -15 1 -15 -4z"/>
<path d="M6150 4781 c0 -5 5 -13 10 -16 6 -3 10 -2 10 4 0 5 -4 13 -10 16 -5
3 -10 2 -10 -4z"/>
<path d="M1520 4654 c-132 -35 -291 -191 -367 -362 -34 -77 -79 -209 -87 -254
-10 -58 12 -166 50 -243 30 -61 43 -76 100 -114 l66 -44 87 8 c47 4 95 8 106
9 11 1 35 -6 53 -16 17 -10 32 -13 32 -8 0 6 -4 10 -10 10 -5 0 -10 6 -10 14
0 8 -11 17 -25 20 -14 4 -23 11 -20 16 3 5 -6 21 -20 36 -14 15 -23 34 -20 42
4 11 -1 13 -20 9 -19 -3 -25 -1 -21 9 3 7 -1 20 -9 28 -11 11 -12 15 -3 18 7
3 2 7 -10 10 -12 4 -20 2 -16 -3 8 -14 -20 -11 -35 4 -11 10 -14 9 -18 -1 -4
-10 -8 -10 -19 -1 -8 6 -14 17 -14 23 0 6 -9 17 -19 23 -31 19 -53 73 -58 143
-6 83 12 127 74 177 108 88 139 126 225 278 25 44 55 96 67 116 17 29 19 38 8
51 -11 14 -18 15 -67 2z"/>
<path d="M1879 4161 c8 -5 10 -14 6 -21 -5 -8 1 -20 16 -32 16 -14 18 -18 7
-14 -10 3 -18 1 -18 -4 0 -14 30 -40 55 -46 16 -4 22 -11 19 -22 -5 -15 -4
-16 8 -1 12 14 15 14 32 -3 23 -21 73 -19 68 3 -2 8 -8 16 -13 17 -5 2 -9 9
-9 15 0 18 -63 59 -71 46 -3 -6 -9 1 -13 15 -4 15 -11 24 -17 20 -6 -3 -8 -12
-5 -20 3 -8 1 -14 -4 -14 -6 0 -10 9 -10 21 0 16 -5 19 -22 15 -13 -3 -18 -3
-11 0 17 7 4 34 -16 34 -13 0 -13 -2 -2 -9z m156 -101 c3 -5 1 -10 -4 -10 -6
0 -11 5 -11 10 0 6 2 10 4 10 3 0 8 -4 11 -10z"/>
<path d="M1673 3753 c2 -10 8 -27 12 -38 l8 -20 -16 20 c-9 11 -17 15 -17 8 0
-7 -7 -13 -14 -13 -13 0 -13 -4 0 -35 17 -41 17 -48 4 -40 -5 3 -10 -1 -10
-10 0 -11 5 -15 15 -11 8 3 15 1 15 -3 0 -5 -5 -11 -11 -13 -15 -5 156 -161
183 -167 4 -1 24 -9 45 -17 20 -9 44 -17 52 -19 20 -4 67 -22 107 -41 29 -14
35 -14 63 0 37 20 81 20 125 2 l33 -14 8 -94 c8 -116 0 -168 -26 -168 -11 0
-28 14 -39 33 -26 45 -113 167 -116 164 -2 -1 1 -20 6 -41 5 -21 7 -44 5 -50
-2 -6 -6 -26 -9 -43 -5 -33 -5 -33 36 -33 35 0 47 -6 77 -38 42 -45 106 -201
148 -362 24 -95 33 -113 94 -196 39 -53 97 -116 140 -152 75 -62 186 -185 225
-248 33 -54 41 -54 10 -1 l-28 48 40 -20 c23 -12 44 -32 51 -50 9 -21 22 -31
44 -35 18 -4 61 -31 97 -61 36 -29 66 -52 68 -50 2 2 -2 22 -8 46 -13 46 -6
219 12 299 5 25 16 91 23 147 7 56 18 110 24 120 9 14 10 8 6 -27 -12 -94 -17
-240 -9 -240 5 0 10 12 11 27 0 15 11 35 23 45 13 10 20 21 17 25 -4 3 3 22
15 42 19 30 23 54 26 146 8 225 7 268 -6 273 -7 2 -12 13 -12 25 -1 26 -18 51
-43 60 -9 3 -16 10 -15 14 3 13 -24 97 -37 113 -6 8 -20 34 -30 58 -10 23 -22
42 -27 42 -4 0 -8 5 -8 12 0 15 -97 118 -132 140 -34 22 -50 51 -50 94 0 36
-8 42 -74 48 -21 2 -70 7 -109 11 -88 9 -115 -1 -154 -59 -30 -44 -31 -46 -16
-83 8 -21 16 -50 17 -64 2 -14 22 -47 45 -73 63 -72 97 -199 74 -281 -11 -40
-82 -125 -105 -125 -25 0 -68 152 -54 191 13 34 3 61 -52 146 -28 42 -50 82
-50 89 0 6 -11 22 -25 35 -14 13 -37 45 -52 72 -20 36 -31 46 -45 41 -30 -9
-21 22 17 61 23 23 30 35 20 35 -8 0 -15 4 -15 9 0 10 -18 17 -64 25 -32 6
-57 -8 -52 -27 1 -7 1 -9 -1 -4 -7 11 -33 8 -31 -4 2 -7 -14 -13 -39 -14 -24
-2 -43 1 -43 7 0 5 -4 6 -10 3 -18 -11 -90 38 -90 62 0 6 -8 17 -17 22 -16 9
-16 12 -3 21 13 8 12 10 -3 10 -15 0 -16 3 -6 21 6 12 7 19 1 15 -16 -10 -40
4 -46 27 -5 20 -6 20 -26 2 -21 -19 -29 -8 -8 13 8 8 8 12 1 12 -6 0 -16 14
-23 30 -7 17 -16 30 -21 30 -5 0 -8 6 -6 13 1 6 -6 11 -15 11 -10 -1 -18 2
-18 8 0 5 -5 6 -11 2 -8 -5 -6 -10 5 -16 9 -5 16 -14 16 -20 0 -6 -10 -2 -23
10 -24 23 -43 30 -32 12 3 -5 1 -10 -6 -10 -7 0 -9 9 -6 23 5 20 5 20 -7 5
-16 -21 -28 -24 -20 -4 3 7 -2 16 -12 20 -12 5 -15 2 -11 -11z m47 -53 c0 -5
-2 -10 -4 -10 -3 0 -8 5 -11 10 -3 6 -1 10 4 10 6 0 11 -4 11 -10z m1083 -306
c10 -4 16 -12 14 -18 -4 -11 3 -22 39 -60 11 -13 18 -28 16 -34 -2 -7 1 -12 6
-12 6 0 15 -13 20 -29 8 -22 7 -34 -3 -48 -8 -10 -15 -13 -15 -7 0 6 -17 20
-37 32 -60 33 -145 132 -114 132 5 0 14 14 21 30 7 17 18 28 24 25 6 -3 19 -8
29 -11z m215 -232 c21 -22 54 -72 47 -72 -3 0 2 -15 12 -32 20 -37 20 -40 27
-121 4 -54 3 -57 -11 -38 -8 12 -11 26 -8 31 3 6 -1 10 -9 10 -9 0 -33 38 -62
98 -25 53 -50 104 -55 113 -16 33 29 41 59 11z m121 -362 c0 -10 -3 -8 -9 5
-12 27 -12 43 0 25 5 -8 9 -22 9 -30z m-65 -78 c-1 -18 2 -32 7 -32 5 0 9 7 9
15 0 8 5 15 10 15 16 0 12 -22 -10 -57 -21 -36 -33 -43 -23 -15 5 16 5 16 -13
-1 -15 -14 -16 -19 -6 -26 11 -7 10 -16 -7 -49 -22 -44 -53 -67 -77 -58 -23 9
-16 26 11 26 14 0 25 4 25 9 0 13 -39 21 -46 10 -3 -6 -11 -6 -19 1 -9 8 -12
25 -8 55 3 28 0 53 -10 71 -13 25 -13 32 -1 56 8 16 18 29 22 29 4 1 20 3 36
5 15 1 31 5 34 8 3 3 19 -2 36 -12 25 -15 31 -25 30 -50z m79 21 c4 -19 2 -33
-3 -33 -6 0 -10 17 -10 37 0 43 5 41 13 -4z m4 -105 c-3 -7 -5 -2 -5 12 0 14
2 19 5 13 2 -7 2 -19 0 -25z"/>
<path d="M2420 3715 c-13 -15 -13 -20 -4 -132 5 -58 11 -83 21 -87 19 -8 60
25 91 72 14 20 33 46 44 58 18 21 18 21 -32 47 -28 14 -57 24 -65 21 -9 -4
-15 0 -15 9 0 21 -26 29 -40 12z"/>
<path d="M1910 3621 c0 -5 5 -13 10 -16 6 -3 10 -2 10 4 0 5 -4 13 -10 16 -5
3 -10 2 -10 -4z"/>
<path d="M3583 3560 c21 -18 49 -55 64 -83 34 -67 87 -130 145 -172 26 -19 54
-48 63 -65 15 -29 16 -29 35 -10 22 22 88 42 128 39 60 -5 65 -1 35 25 -25 21
-26 26 -15 50 20 44 16 48 -38 41 -29 -4 -50 -3 -50 2 0 11 -66 33 -95 33 -10
0 -29 12 -42 26 -20 22 -29 25 -60 19 -48 -9 -82 7 -127 60 -20 25 -47 50 -59
56 -12 6 -5 -3 16 -21z"/>
<path d="M1 3428 c-1 -102 0 -108 19 -108 18 0 19 3 10 20 -6 11 -7 20 -3 20
4 0 2 5 -4 11 -6 6 -9 25 -7 43 3 17 1 51 -4 76 -9 39 -10 31 -11 -62z"/>
<path d="M1824 3275 c-14 -22 -16 -40 -10 -123 4 -53 13 -103 19 -110 6 -7 74
-56 151 -108 78 -52 152 -102 166 -112 l24 -17 -23 32 c-13 18 -30 34 -37 37
-7 3 -20 20 -29 39 -12 26 -21 34 -36 30 -10 -3 -16 -9 -13 -14 3 -5 1 -9 -4
-9 -13 0 -42 34 -42 50 0 27 -43 135 -61 156 -11 11 -19 33 -19 50 -1 32 -40
116 -57 121 -7 3 -19 -7 -29 -22z"/>
<path d="M4176 3224 c22 -22 50 -52 61 -67 l22 -28 38 24 c21 13 44 32 52 41
12 14 10 16 -13 14 -14 -1 -26 -5 -26 -9 0 -7 -55 -29 -71 -29 -16 0 -9 27 11
45 28 25 14 38 -32 31 -22 -4 -48 -2 -61 5 -12 7 -4 -5 19 -27z"/>
<path d="M3341 3234 c0 -11 3 -14 6 -6 3 7 2 16 -1 19 -3 4 -6 -2 -5 -13z"/>
<path d="M1328 3153 c-19 -24 -17 -47 6 -51 25 -5 44 14 29 29 -6 6 -9 18 -6
25 7 20 -11 17 -29 -3z"/>
<path d="M3900 3152 c0 -3 30 -37 68 -75 l67 -68 0 -101 c0 -96 1 -101 25
-117 77 -50 90 -71 109 -176 10 -55 30 -126 44 -158 22 -51 25 -55 32 -35 4
13 7 28 6 35 -1 6 3 15 9 18 8 5 6 13 -5 25 -36 40 -28 139 13 155 18 7 65
-38 67 -64 1 -11 7 -27 15 -36 11 -13 11 -21 2 -35 -9 -15 -8 -19 7 -23 12 -3
21 -18 25 -40 9 -47 38 -57 74 -25 15 12 29 24 31 25 18 10 -29 153 -51 153
-4 0 -8 6 -8 14 0 10 11 13 41 10 26 -2 46 1 54 10 12 11 9 18 -17 45 -17 17
-34 31 -39 31 -4 0 -11 10 -15 23 -8 27 -22 37 -51 37 -23 0 -63 32 -63 49 0
5 -14 4 -31 -2 -28 -11 -33 -10 -45 8 -40 60 -40 60 -67 46 -36 -19 -68 6
-108 86 -19 37 -52 85 -75 107 -40 41 -114 91 -114 78z"/>
<path d="M765 3000 c-32 -13 -51 -16 -55 -9 -7 11 -60 2 -60 -10 0 -4 -19 -7
-42 -8 -61 0 -128 -14 -128 -26 0 -5 -7 -4 -15 3 -10 8 -19 9 -27 3 -21 -16
-54 -21 -72 -11 -11 6 -16 5 -16 -5 0 -10 -16 -17 -47 -22 -27 -4 -52 -10 -58
-15 -12 -9 -106 -10 -120 -2 -19 12 -34 10 -39 -5 -3 -8 -10 -12 -15 -9 -5 3
-23 -1 -40 -10 l-31 -15 0 -254 0 -254 52 -43 c60 -50 97 -87 189 -189 72 -81
161 -140 246 -165 29 -8 55 -19 57 -23 3 -4 8 -30 12 -58 l6 -50 -84 -42 c-93
-45 -118 -67 -151 -132 -12 -24 -38 -54 -57 -66 -19 -13 -59 -44 -89 -70 -53
-47 -130 -85 -161 -80 -13 2 -15 -80 -18 -716 l-2 -717 1052 0 c579 0 1048 4
1042 8 -6 4 -14 24 -18 45 -5 27 -12 37 -26 37 -12 0 -26 16 -41 48 -13 26
-23 50 -21 55 1 4 -12 20 -28 35 -19 17 -31 38 -32 57 -1 17 -5 35 -9 40 -12
16 -22 64 -26 132 -3 35 -8 63 -13 63 -4 0 -18 25 -30 54 -12 31 -33 62 -48
72 l-25 17 23 17 24 18 -32 33 c-25 26 -32 42 -32 73 -1 66 -16 126 -40 158
-17 23 -19 32 -9 44 9 11 7 24 -14 63 -15 30 -22 54 -17 62 11 16 2 32 -12 23
-7 -4 -8 -2 -4 4 8 13 -30 40 -64 45 -18 3 -25 10 -24 26 1 18 -3 21 -22 17
-32 -8 -144 85 -144 120 0 14 -6 24 -15 24 -8 0 -22 12 -32 26 -10 14 -35 45
-56 67 -21 23 -48 61 -59 85 -11 23 -41 59 -67 80 -25 20 -51 43 -56 50 -6 7
-19 14 -30 16 -24 3 -69 66 -84 117 -14 48 -35 66 -56 49 -13 -10 -21 -6 -48
24 -18 20 -38 36 -44 36 -5 0 -16 11 -23 25 -7 14 -19 25 -27 25 -7 0 -13 5
-13 10 0 6 -7 10 -15 10 -8 0 -15 4 -15 10 0 5 -4 9 -8 7 -16 -4 -71 45 -65
59 3 8 0 14 -6 14 -6 0 -11 5 -11 11 0 7 -12 23 -27 37 -18 17 -28 37 -30 61
-2 20 -6 65 -9 101 -3 36 -7 90 -9 120 -3 67 -14 112 -29 122 -7 5 -7 8 2 8 7
0 10 5 7 10 -4 6 -3 16 2 23 5 7 10 25 11 40 1 15 7 37 12 48 13 22 9 120 -3
112 -5 -3 -8 8 -7 23 4 55 1 69 -12 56 -6 -6 -13 -47 -16 -92 -2 -44 -8 -80
-13 -80 -5 0 -9 37 -9 83 0 64 4 87 19 106 24 32 95 40 145 16 49 -23 128
-112 163 -183 24 -50 28 -71 31 -167 3 -92 8 -119 29 -164 23 -50 26 -53 55
-47 17 3 41 6 55 6 20 0 23 4 18 21 -4 11 -1 35 6 52 13 34 57 87 72 87 5 0
20 9 34 20 14 11 31 20 37 20 6 0 3 -5 -6 -11 -29 -16 -20 -28 12 -16 44 17
157 -3 301 -54 119 -41 126 -45 181 -103 31 -34 96 -103 145 -155 57 -60 118
-113 173 -148 90 -59 303 -249 329 -295 22 -37 218 -128 275 -128 11 0 -10 11
-47 24 -66 22 -158 92 -138 105 23 16 -11 134 -37 130 -28 -5 -44 5 -54 31 -7
22 -18 33 -39 37 -16 3 -26 10 -23 15 3 5 12 7 20 4 8 -3 14 1 14 8 0 8 3 23
7 33 4 13 -2 11 -24 -10 -30 -27 -54 -27 -30 1 9 12 9 16 0 19 -7 3 -13 12
-13 21 0 24 -13 6 -14 -20 -1 -26 -36 -39 -36 -14 0 19 -16 21 -23 4 -4 -10
-6 -10 -6 0 -1 10 -4 10 -15 0 -8 -7 -11 -17 -8 -23 3 -5 -1 -5 -9 1 -45 35
-178 132 -204 149 -16 10 -47 36 -68 57 -21 21 -42 38 -48 38 -6 0 -7 5 -4 10
3 6 0 10 -7 10 -7 0 -21 12 -31 25 -18 24 -17 25 3 25 12 0 35 -7 51 -16 31
-16 65 -12 54 5 -3 6 -13 7 -22 4 -10 -4 -14 -2 -9 5 6 10 -45 72 -59 72 -3 0
-15 9 -27 20 -18 17 -20 23 -10 44 9 20 8 25 -4 30 -9 3 -20 4 -25 0 -5 -3 -9
0 -9 6 0 7 -6 10 -13 7 -7 -3 -21 1 -31 9 -11 7 -23 11 -27 8 -5 -3 -9 0 -9 5
0 6 -6 11 -13 11 -18 0 -57 34 -57 49 0 6 -6 11 -12 11 -7 0 -26 14 -42 30
-16 16 -32 27 -37 25 -4 -3 -10 -1 -14 5 -9 14 -75 44 -82 36 -3 -3 -11 1 -17
9 -6 8 -35 20 -64 28 -29 7 -51 15 -48 18 2 2 -7 5 -20 5 -26 2 -48 23 -64 62
-5 12 -18 22 -30 22 -12 0 -20 7 -21 18 0 9 -23 35 -50 57 -61 50 -67 55 -105
82 l-31 22 -34 -21 c-36 -23 -118 -43 -101 -26 6 6 8 17 4 26 -4 12 -1 14 12
9 11 -5 16 -3 14 5 -7 19 -20 18 -73 -2z m340 -500 c-19 -20 -41 -28 -30 -10
3 6 1 10 -4 10 -6 0 -11 -4 -11 -8 0 -4 -9 -8 -20 -8 -11 0 -20 7 -20 14 0 9
7 12 20 9 11 -3 23 -1 26 4 3 5 17 9 31 9 25 0 26 0 8 -20z m-138 -35 c0 -8
-4 -15 -9 -15 -5 0 -6 -6 -2 -12 4 -7 3 -10 -1 -5 -15 13 -16 47 -2 47 8 0 14
-7 14 -15z m-582 -235 c3 -5 1 -10 -4 -10 -6 0 -11 5 -11 10 0 6 2 10 4 10 3
0 8 -4 11 -10z m23 -35 c-3 -14 -1 -23 6 -22 14 3 17 -46 3 -55 -7 -4 -6 -12
3 -25 8 -10 1 -7 -15 7 -17 14 -32 27 -35 29 -3 2 3 1 13 -2 9 -4 17 -2 17 3
0 6 -8 10 -19 10 -35 0 -12 79 23 80 4 0 6 -11 4 -25z m-108 -50 c0 -14 -5
-25 -11 -25 -6 0 -9 6 -6 14 3 7 0 19 -6 25 -8 8 -7 11 6 11 11 0 17 -8 17
-25z m-30 -16 c0 -5 -4 -9 -10 -9 -5 0 -10 7 -10 16 0 8 5 12 10 9 6 -3 10
-10 10 -16z m566 -736 c40 -59 81 -104 133 -147 135 -110 202 -179 294 -306
108 -148 132 -207 153 -384 8 -66 19 -152 25 -191 20 -125 20 -131 -1 -70 -21
57 -34 78 -101 155 -29 33 -39 51 -87 161 -11 25 -49 91 -84 145 -35 54 -72
115 -81 134 -9 19 -30 55 -47 80 -16 25 -30 48 -30 51 0 14 -104 186 -130 216
-24 27 -109 190 -114 218 -1 5 -8 21 -15 35 -29 53 27 -10 85 -97z m1178
-1301 c2 -4 -6 -17 -19 -30 l-23 -22 -5 22 c-8 29 32 54 47 30z"/>
<path d="M1530 2963 c14 -15 17 -22 8 -14 -25 19 -38 5 -38 -42 0 -56 39 -103
122 -147 35 -19 104 -58 153 -88 50 -30 120 -72 157 -92 97 -55 119 -72 168
-135 58 -72 285 -275 373 -333 38 -24 114 -89 170 -144 55 -55 86 -83 69 -61
-17 21 -60 67 -96 102 -36 36 -62 69 -59 74 3 6 1 7 -4 4 -6 -4 -46 16 -89 45
-51 33 -74 53 -64 56 16 5 30 22 30 36 0 5 -11 -1 -24 -13 l-24 -23 -80 71
c-94 83 -236 235 -240 259 -3 15 -2 15 10 -1 12 -16 15 -16 45 5 35 25 42 38
18 38 -8 0 -15 9 -15 20 0 11 -4 20 -10 20 -5 0 -10 6 -10 12 0 17 -67 75
-112 99 -21 11 -38 24 -38 30 0 6 -4 7 -10 4 -5 -3 -10 -2 -10 2 0 8 -57 46
-70 48 -3 0 -4 3 -3 8 2 4 -2 7 -7 7 -6 0 -24 15 -40 33 -25 27 -31 30 -40 17
-8 -13 -10 -13 -10 2 0 10 -5 15 -13 12 -7 -2 -28 9 -47 27 -43 38 -90 64 -90
49 0 -6 -7 -4 -16 4 -20 20 -30 21 -14 1 8 -9 9 -15 2 -15 -6 0 -17 8 -24 18
-7 10 -22 22 -33 26 -17 6 -16 4 5 -21z"/>
<path d="M3815 2888 c31 -89 52 -660 26 -691 -9 -11 -4 -38 24 -119 19 -58 35
-111 35 -117 0 -19 -39 -51 -63 -51 -42 0 -131 54 -146 88 -8 18 -19 32 -23
32 -5 0 -6 -5 -2 -11 4 -7 1 -10 -7 -7 -8 2 -20 17 -28 33 -17 34 -20 143 -5
156 12 10 11 133 -1 231 -6 48 -11 57 -29 60 -18 3 -22 12 -28 68 -6 57 -33
173 -58 250 -8 23 -8 22 -9 -11 -1 -49 -72 -277 -116 -372 -19 -41 -35 -83
-35 -91 0 -34 -76 -158 -126 -206 -29 -28 -56 -60 -59 -71 -7 -21 -34 -26 -36
-6 -2 36 -16 -46 -14 -88 3 -93 28 -111 207 -151 81 -18 144 -41 232 -84 67
-32 148 -66 181 -75 150 -41 209 -62 334 -116 135 -60 189 -97 280 -192 55
-58 112 -140 107 -154 -3 -6 3 -13 12 -16 9 -2 28 -24 41 -48 23 -42 24 -43 3
-25 -22 19 -22 19 -22 -1 0 -20 25 -39 44 -34 10 2 26 -18 26 -33 0 -6 -7 -1
-15 10 -14 19 -14 19 -15 -3 0 -12 -8 -24 -17 -26 -13 -3 -11 -5 7 -7 14 -1
29 -2 33 -1 5 1 6 -3 2 -9 -3 -5 -1 -10 5 -10 6 0 8 -4 5 -10 -3 -6 1 -7 9 -4
9 3 16 1 16 -5 0 -6 -7 -11 -15 -11 -8 0 -15 -5 -15 -11 0 -6 9 -8 20 -4 12 4
27 1 35 -5 17 -14 21 -35 5 -25 -5 3 -10 2 -10 -3 0 -5 8 -12 18 -14 10 -3 31
-32 46 -64 16 -32 32 -66 37 -74 5 -8 14 -26 19 -39 6 -13 24 -44 41 -69 21
-32 27 -48 20 -55 -20 -20 -11 -69 20 -114 26 -40 29 -49 20 -76 -6 -16 -11
-48 -11 -70 0 -40 33 -246 48 -302 l8 -30 511 -2 c434 -2 513 0 523 12 10 12
8 17 -11 24 -15 5 -29 5 -36 -1 -13 -10 -33 -3 -33 12 0 4 8 6 19 3 10 -3 22
0 25 6 4 7 -1 11 -13 11 -12 0 -21 5 -21 11 0 19 -28 39 -46 32 -12 -4 -15 -3
-10 5 4 7 1 12 -9 12 -9 0 -14 4 -11 9 8 12 -32 61 -50 61 -8 0 -14 5 -14 11
0 12 16 4 48 -24 40 -37 25 4 -17 44 -40 37 -45 57 -9 38 31 -17 29 -7 -4 26
-20 19 -29 24 -25 13 4 -12 1 -18 -9 -18 -9 0 -12 -5 -8 -12 5 -9 2 -8 -9 1
-16 13 -16 15 -1 25 15 11 15 14 0 28 -22 22 -22 45 0 28 13 -12 14 -10 3 13
-16 36 -37 41 -60 15 -20 -23 -20 -23 -10 -1 15 29 14 43 -2 37 -8 -3 -20 2
-27 11 -7 8 -22 15 -34 15 -21 1 -21 1 -1 12 25 14 35 29 28 41 -3 5 1 13 8
18 12 7 11 9 -1 9 -27 0 -80 53 -74 75 4 15 -2 23 -25 33 -17 8 -35 11 -40 7
-6 -3 -15 3 -21 14 -12 24 3 37 39 32 15 -2 21 1 16 8 -3 6 -10 9 -15 6 -5 -3
-11 -1 -15 5 -3 5 -11 10 -17 10 -6 0 -8 -3 -5 -6 3 -4 -5 -16 -19 -26 -30
-25 -42 -18 -14 7 24 21 26 40 5 31 -8 -3 -15 -2 -15 2 0 15 24 32 45 32 17 1
15 4 -10 18 -16 9 -33 17 -37 18 -5 1 -11 3 -15 4 -5 1 -12 2 -17 1 -13 -3
-47 31 -57 58 -8 20 -11 21 -26 10 -14 -12 -15 -11 -9 7 3 11 0 28 -8 39 -12
17 -12 21 3 33 9 7 11 11 5 8 -26 -13 -40 38 -14 54 8 5 12 11 9 14 -3 3 -18
-6 -34 -20 -39 -34 -81 -55 -89 -46 -4 4 -15 7 -24 7 -10 0 -18 10 -21 25 -3
23 -4 24 -12 5 -6 -16 -8 -17 -8 -3 -1 9 -10 20 -22 23 -13 4 -18 12 -15 22 7
16 -27 66 -38 56 -3 -3 -6 -1 -6 6 0 12 -9 25 -42 62 -10 10 -18 28 -18 39 0
10 -6 25 -13 32 -8 7 -12 20 -9 30 2 10 0 18 -4 18 -13 0 -37 58 -29 70 3 5 1
10 -4 10 -6 0 -10 3 -9 8 1 4 -6 22 -16 40 -9 19 -15 36 -12 39 8 8 -26 63
-39 63 -6 0 -16 14 -22 30 -6 17 -18 30 -27 30 -9 0 -16 7 -16 15 0 8 -9 15
-20 15 -11 0 -20 5 -20 12 0 12 -70 78 -82 78 -5 0 -8 7 -8 16 0 10 -6 14 -15
10 -8 -3 -15 0 -15 6 0 6 -6 6 -16 -3 -14 -11 -18 -11 -29 4 -6 9 -15 14 -18
10 -4 -3 -7 -1 -7 6 0 8 -6 11 -16 7 -10 -4 -23 3 -36 19 -11 14 -23 25 -28
25 -4 0 -25 17 -47 38 -164 155 -181 168 -239 182 -42 10 -59 20 -67 37 -12
27 -5 34 92 90 41 24 50 33 34 33 -15 0 -23 6 -23 18 0 10 -13 32 -29 50 -25
27 -34 30 -53 23 -28 -11 -58 10 -80 55 -30 59 -97 271 -102 324 -9 92 -53
260 -67 260 -5 0 -6 -6 -4 -12z m1401 -1929 c11 -18 -14 -35 -28 -20 -11 10
-9 11 7 5 18 -7 18 -6 6 9 -8 10 -9 17 -3 17 6 0 14 -5 18 -11z m19 -67 c-3
-3 -11 0 -18 7 -9 10 -8 11 6 5 10 -3 15 -9 12 -12z m48 -88 c11 -14 16 -28
13 -31 -3 -4 -6 -1 -6 5 0 7 -5 12 -11 12 -5 0 -7 -5 -3 -12 4 -7 3 -8 -5 -4
-6 4 -9 12 -5 17 3 5 0 16 -6 24 -7 8 -9 15 -4 15 5 0 17 -12 27 -26z m70 -28
c6 -8 10 -7 14 2 2 6 9 9 14 6 12 -7 -8 -34 -24 -34 -13 0 -47 30 -47 41 0 11
32 -1 43 -15z m1 -61 c11 -8 15 -15 9 -15 -19 0 -43 12 -43 21 0 13 12 11 34
-6z m-14 -35 c0 -5 -2 -10 -4 -10 -3 0 -8 5 -11 10 -3 6 -1 10 4 10 6 0 11 -4
11 -10z m80 -50 c0 -5 -8 -10 -17 -10 -15 0 -16 2 -3 10 19 12 20 12 20 0z
m44 -9 c13 -14 14 -21 5 -26 -8 -6 -7 -10 5 -17 9 -5 16 -13 16 -18 0 -6 -9
-2 -20 7 -11 10 -20 27 -20 38 0 16 -2 17 -10 5 -11 -18 -23 -8 -14 14 8 21
17 20 38 -3z m66 -90 c0 -5 3 -18 7 -28 6 -17 5 -17 -15 1 -26 22 -28 36 -7
36 8 0 15 -4 15 -9z m15 -112 c11 -16 1 -19 -13 -3 -7 8 -8 14 -3 14 5 0 13
-5 16 -11z m99 -44 c-4 -8 -10 -12 -15 -9 -11 6 -2 24 11 24 5 0 7 -7 4 -15z
m251 -355 c3 -5 -1 -10 -9 -10 -9 0 -16 5 -16 10 0 6 4 10 9 10 6 0 13 -4 16
-10z"/>
<path d="M1142 2478 c-19 -25 -42 -77 -42 -97 0 -10 -6 -21 -12 -24 -7 -2 10
-11 38 -20 28 -8 74 -27 102 -41 28 -14 67 -26 85 -26 32 0 94 -18 182 -54 33
-14 37 -14 21 -2 -16 13 -17 18 -5 33 11 15 11 16 -1 6 -8 -7 -21 -13 -29 -13
-13 1 -13 3 2 11 17 10 17 12 0 40 -9 16 -23 29 -30 29 -7 0 -13 6 -13 14 0 7
-17 22 -37 31 -48 23 -48 22 -34 39 9 11 7 15 -13 18 -14 3 -23 2 -21 -3 3 -4
0 -11 -6 -15 -8 -4 -9 -3 -5 5 4 6 0 13 -11 17 -10 3 -32 12 -50 21 -17 8 -37
13 -44 11 -8 -3 -22 4 -33 14 -23 21 -30 22 -44 6z m11 -38 c-9 -22 -18 -38
-20 -36 -5 5 24 76 31 76 2 0 -3 -18 -11 -40z"/>
<path d="M4350 2410 c0 -5 5 -10 11 -10 5 0 7 5 4 10 -3 6 -8 10 -11 10 -2 0
-4 -4 -4 -10z"/>
<path d="M971 2296 c-17 -21 2 -28 36 -14 15 6 33 10 40 9 6 -1 14 2 17 7 9
15 -81 13 -93 -2z"/>
<path d="M1884 2279 c-19 -21 -19 -21 9 -8 15 7 27 16 27 21 0 14 -16 9 -36
-13z"/>
<path d="M2455 2275 c-5 -11 -10 -24 -13 -30 -3 -5 3 -3 13 7 9 9 15 22 12 30
-3 9 -7 7 -12 -7z"/>
<path d="M1917 2274 c-11 -11 3 -24 18 -17 8 3 15 0 15 -7 0 -6 5 -8 10 -5 6
3 10 11 10 16 0 6 -4 7 -10 4 -5 -3 -10 -1 -10 4 0 12 -23 15 -33 5z"/>
<path d="M3141 2248 c5 -17 6 -50 2 -71 -5 -31 -3 -38 6 -32 7 4 11 15 8 25
-2 9 0 24 4 33 12 20 0 77 -17 77 -9 0 -10 -8 -3 -32z"/>
<path d="M1975 2240 c-3 -5 1 -10 9 -10 8 0 18 5 21 10 3 6 -1 10 -9 10 -8 0
-18 -4 -21 -10z"/>
<path d="M990 2223 c5 -12 10 -35 10 -50 0 -26 5 -30 48 -41 26 -7 121 -46
212 -87 91 -40 184 -78 208 -85 50 -13 73 -4 43 17 -25 17 -27 36 -6 53 36 30
7 61 -72 80 -38 9 -39 8 -17 -25 16 -25 16 -25 -12 -25 -38 1 -100 33 -96 49
2 8 -4 21 -12 30 -8 9 -19 29 -25 45 -8 19 -16 26 -26 22 -8 -3 -15 -1 -15 5
0 6 -6 9 -12 6 -7 -3 -30 -12 -50 -21 -33 -14 -37 -14 -32 -1 4 10 0 15 -14
15 -11 0 -22 5 -24 12 -5 13 -28 2 -28 -13 0 -6 4 -8 9 -5 14 9 23 -25 10 -40
-18 -22 -57 4 -97 62 -11 17 -11 17 -2 -3z"/>
<path d="M2005 2221 c-3 -5 4 -12 14 -16 12 -4 18 -12 14 -21 -4 -10 0 -12 11
-8 22 8 20 25 -4 31 -11 3 -17 9 -14 14 3 5 1 9 -5 9 -5 0 -12 -4 -16 -9z"/>
<path d="M1030 2205 c-11 -13 -10 -14 4 -9 9 3 16 10 16 15 0 13 -6 11 -20 -6z"/>
<path d="M2442 2187 c1 -15 8 -27 15 -27 7 0 13 -4 13 -10 0 -5 7 -10 15 -10
8 0 15 5 15 11 0 12 -30 44 -30 32 0 -4 -7 1 -15 11 -14 19 -15 19 -13 -7z"/>
<path d="M2080 2163 c5 -2 8 -9 4 -14 -3 -5 2 -12 10 -15 9 -3 13 -11 9 -17
-4 -6 -1 -7 6 -3 9 6 9 13 -2 29 -7 11 -19 22 -26 23 -6 1 -7 0 -1 -3z"/>
<path d="M2117 2096 c-4 -10 -1 -13 7 -10 20 8 29 -12 16 -36 -14 -26 1 -26
18 0 10 17 9 23 -8 40 -24 24 -26 24 -33 6z"/>
<path d="M1613 2003 l-42 -41 42 -28 c23 -15 83 -60 132 -99 50 -40 146 -110
215 -156 131 -87 201 -115 255 -102 29 6 29 7 -14 14 -24 5 -64 18 -89 30 -43
21 -45 23 -23 33 16 7 28 6 42 -2 28 -18 34 -15 36 21 2 24 -3 36 -19 46 -22
14 -22 14 -5 -12 28 -43 20 -44 -23 -2 -42 41 -51 62 -23 51 15 -6 15 -5 -1
13 -15 17 -22 18 -39 9 -16 -8 -23 -7 -34 8 -7 10 -13 25 -13 33 0 12 -11 16
-44 17 -25 0 -43 -3 -40 -8 3 -4 -3 -5 -13 -1 -16 6 -16 4 2 -17 18 -21 18
-23 2 -17 -10 4 -21 7 -23 7 -2 0 -4 9 -4 20 0 11 6 20 13 20 17 0 15 102 -2
108 -6 2 -18 10 -25 18 -12 11 -16 11 -26 -1 -6 -7 -17 -12 -24 -9 -17 6 -44
-25 -29 -34 6 -4 13 -17 17 -29 9 -29 -9 -31 -24 -3 -6 11 -17 20 -25 20 -8 0
-19 9 -25 21 -6 11 -24 33 -40 48 -16 15 -33 36 -37 47 -7 17 -12 15 -50 -23z
m372 -263 c3 -6 -1 -7 -9 -4 -18 7 -21 14 -7 14 6 0 13 -4 16 -10z"/>
<path d="M1770 1990 c-7 -18 -5 -49 3 -41 5 5 7 17 4 27 -3 11 -6 17 -7 14z"/>
<path d="M2839 1883 c-13 -16 -12 -17 4 -4 9 7 17 15 17 17 0 8 -8 3 -21 -13z"/>
<path d="M2507 1817 c-7 -18 25 -87 50 -110 14 -12 29 -16 47 -11 32 8 33 15
4 40 -12 10 -18 13 -14 7 14 -24 -8 -13 -45 23 -21 20 -35 43 -32 50 3 8 3 14
0 14 -3 0 -7 -6 -10 -13z"/>
<path d="M4468 1153 c10 -4 10 -8 1 -19 -13 -15 -9 -17 15 -8 13 5 14 9 5 20
-6 8 -17 14 -23 13 -6 0 -6 -3 2 -6z"/>
<path d="M5280 1060 c-19 -16 -30 -30 -24 -30 5 0 23 14 39 30 37 38 30 38
-15 0z"/>
<path d="M5256 1004 c-4 -11 -2 -15 7 -11 7 3 31 -13 52 -34 21 -21 34 -39 28
-39 -6 0 -16 7 -23 15 -7 8 -16 15 -21 15 -5 0 -9 -7 -9 -15 0 -8 4 -15 10
-15 5 0 14 -9 20 -20 9 -17 7 -22 -11 -29 -12 -4 -18 -10 -13 -13 12 -7 54 9
54 21 0 5 -6 11 -12 14 -7 2 -10 8 -6 12 4 4 14 3 21 -4 31 -25 3 42 -33 80
-40 43 -55 48 -64 23z"/>
<path d="M5380 986 c0 -2 7 -6 15 -10 8 -3 15 -1 15 4 0 6 -7 10 -15 10 -8 0
-15 -2 -15 -4z"/>
<path d="M5270 960 c0 -5 5 -10 10 -10 6 0 10 5 10 10 0 6 -4 10 -10 10 -5 0
-10 -4 -10 -10z"/>
<path d="M5376 957 c3 -10 9 -15 12 -12 3 3 0 11 -7 18 -10 9 -11 8 -5 -6z"/>
<path d="M5568 913 c7 -3 16 -2 19 1 4 3 -2 6 -13 5 -11 0 -14 -3 -6 -6z"/>
<path d="M5270 901 c0 -5 7 -12 16 -15 24 -9 28 -7 14 9 -14 17 -30 20 -30 6z"/>
<path d="M5400 869 c0 -5 5 -7 10 -4 6 3 10 8 10 11 0 2 -4 4 -10 4 -5 0 -10
-5 -10 -11z"/>
<path d="M5347 846 c-7 -17 1 -26 24 -26 9 0 19 -5 21 -12 3 -9 6 -9 12 0 4 7
2 12 -3 12 -6 0 -11 8 -11 17 0 13 -3 14 -12 5 -17 -17 -29 -15 -22 3 4 8 4
15 1 15 -3 0 -7 -6 -10 -14z"/>
<path d="M5425 810 c3 -5 11 -10 16 -10 6 0 7 5 4 10 -3 6 -11 10 -16 10 -6 0
-7 -4 -4 -10z"/>
<path d="M5440 750 c0 -5 5 -10 11 -10 5 0 7 5 4 10 -3 6 -8 10 -11 10 -2 0
-4 -4 -4 -10z"/>
<path d="M5410 740 c0 -5 5 -10 11 -10 5 0 7 5 4 10 -3 6 -8 10 -11 10 -2 0
-4 -4 -4 -10z"/>
<path d="M5485 720 c3 -5 8 -10 11 -10 2 0 4 5 4 10 0 6 -5 10 -11 10 -5 0 -7
-4 -4 -10z"/>
<path d="M5465 670 c-3 -5 -1 -10 4 -10 6 0 11 5 11 10 0 6 -2 10 -4 10 -3 0
-8 -4 -11 -10z"/>
<path d="M5490 666 c0 -8 26 -36 33 -36 3 0 8 7 11 16 3 9 2 12 -5 9 -5 -4
-16 -1 -24 5 -8 7 -15 9 -15 6z"/>
<path d="M5590 636 c0 -2 8 -10 18 -17 15 -13 16 -12 3 4 -13 16 -21 21 -21
13z"/>
<path d="M5520 600 c-12 -8 -10 -10 9 -10 16 0 21 -4 17 -15 -3 -8 0 -15 6
-15 6 0 20 -8 30 -17 18 -16 18 -16 12 0 -3 9 -10 17 -16 17 -5 0 -7 4 -4 8 3
5 -4 16 -15 25 -22 20 -20 19 -39 7z"/>
<path d="M5595 510 c-12 -5 -14 -9 -6 -9 9 -1 6 -8 -9 -21 -23 -20 -23 -21 -4
-35 16 -12 21 -12 33 0 8 8 11 18 7 22 -4 4 -11 1 -16 -7 -7 -11 -10 -11 -10
-2 0 7 7 24 16 37 9 14 15 25 13 24 -2 0 -13 -4 -24 -9z"/>
<path d="M5637 439 c7 -7 15 -10 18 -7 3 3 -2 9 -12 12 -14 6 -15 5 -6 -5z"/>
<path d="M5765 270 c3 -5 8 -10 11 -10 2 0 4 5 4 10 0 6 -5 10 -11 10 -5 0 -7
-4 -4 -10z"/>
<path d="M5770 216 c0 -3 9 -10 20 -16 11 -6 20 -8 20 -6 0 3 -9 10 -20 16
-11 6 -20 8 -20 6z"/>
<path d="M5770 161 c0 -13 26 -32 33 -24 11 10 8 25 -3 18 -5 -3 -10 -1 -10 4
0 6 -4 11 -10 11 -5 0 -10 -4 -10 -9z"/>
<path d="M5826 144 c-8 -20 12 -47 29 -40 7 2 18 -1 24 -7 7 -7 11 -7 11 -1 0
6 -9 19 -20 29 -20 18 -21 18 -14 -1 7 -17 6 -17 -9 -6 -8 8 -13 20 -10 28 3
8 3 14 0 14 -3 0 -8 -7 -11 -16z"/>
<path d="M5875 150 c3 -5 8 -10 11 -10 2 0 4 5 4 10 0 6 -5 10 -11 10 -5 0 -7
-4 -4 -10z"/>
<path d="M6267 83 c-4 -3 -7 -11 -7 -17 0 -6 5 -5 12 2 6 6 9 14 7 17 -3 3 -9
2 -12 -2z"/>
<path d="M2175 10 c-4 -6 5 -10 19 -10 14 0 26 5 26 10 0 6 -9 10 -19 10 -11
0 -23 -4 -26 -10z"/>
<path d="M5965 10 c3 -5 8 -10 11 -10 2 0 4 5 4 10 0 6 -5 10 -11 10 -5 0 -7
-4 -4 -10z"/>
<path d="M5928 3 c7 -3 16 -2 19 1 4 3 -2 6 -13 5 -11 0 -14 -3 -6 -6z"/>
</g>
</svg>
